<svg width="24" height="24" viewBox="0 0 24 24" fill="none" xmlns="http://www.w3.org/2000/svg">
<path d="M8.8157 17V16.1051L12.1765 12.4261C12.5709 11.9953 12.8957 11.6207 13.1509 11.3026C13.4061 10.9811 13.5951 10.6795 13.7177 10.3977C13.8436 10.1127 13.9066 9.81439 13.9066 9.50284C13.9066 9.14489 13.8204 8.83499 13.6481 8.57315C13.479 8.31132 13.247 8.10914 12.9521 7.96662C12.6571 7.8241 12.3256 7.75284 11.9577 7.75284C11.5666 7.75284 11.2253 7.83404 10.9336 7.99645C10.6452 8.15554 10.4215 8.37926 10.2624 8.66761C10.1067 8.95597 10.0288 9.29403 10.0288 9.68182H8.85547C8.85547 9.08523 8.99302 8.56155 9.26811 8.1108C9.54321 7.66004 9.91773 7.30871 10.3917 7.05682C10.869 6.80492 11.4042 6.67898 11.9975 6.67898C12.5941 6.67898 13.1228 6.80492 13.5835 7.05682C14.0442 7.30871 14.4054 7.64844 14.6673 8.07599C14.9291 8.50355 15.06 8.97917 15.06 9.50284C15.06 9.87737 14.9921 10.2436 14.8562 10.6016C14.7236 10.9562 14.4916 11.3523 14.1602 11.7898C13.832 12.224 13.3763 12.7543 12.793 13.3807L10.506 15.8267V15.9062H15.239V17H8.8157Z" fill="#334155"/>
</svg>
