<svg width="24" height="24" viewBox="0 0 24 24" fill="none" xmlns="http://www.w3.org/2000/svg">
<path d="M12.0373 17.1392C11.381 17.1392 10.796 17.0265 10.2823 16.8011C9.7719 16.5758 9.36589 16.2625 9.06428 15.8615C8.76598 15.4571 8.60357 14.9882 8.57706 14.4545H9.8299C9.85642 14.7827 9.96911 15.0661 10.168 15.3047C10.3668 15.54 10.627 15.7223 10.9485 15.8516C11.27 15.9808 11.6263 16.0455 12.0174 16.0455C12.4549 16.0455 12.8427 15.9692 13.1808 15.8168C13.5188 15.6643 13.784 15.4522 13.9762 15.1804C14.1684 14.9086 14.2646 14.5938 14.2646 14.2358C14.2646 13.8613 14.1718 13.5315 13.9862 13.2464C13.8005 12.9581 13.5288 12.7327 13.1708 12.5703C12.8129 12.4079 12.3754 12.3267 11.8583 12.3267H11.043V11.233H11.8583C12.2627 11.233 12.6173 11.16 12.9222 11.0142C13.2305 10.8684 13.4708 10.6629 13.6431 10.3977C13.8188 10.1326 13.9066 9.82102 13.9066 9.46307C13.9066 9.11837 13.8304 8.81842 13.6779 8.56321C13.5254 8.308 13.31 8.10914 13.0316 7.96662C12.7565 7.8241 12.4317 7.75284 12.0572 7.75284C11.7058 7.75284 11.3744 7.81747 11.0629 7.94673C10.7546 8.07268 10.5027 8.25663 10.3072 8.49858C10.1116 8.73722 10.0056 9.02557 9.98899 9.36364H8.79581C8.8157 8.83002 8.97644 8.36269 9.27805 7.96165C9.57966 7.55729 9.97408 7.24242 10.4613 7.01705C10.9518 6.79167 11.4904 6.67898 12.0771 6.67898C12.7068 6.67898 13.247 6.80658 13.6978 7.06179C14.1486 7.31368 14.4949 7.64678 14.7369 8.06108C14.9788 8.47538 15.0998 8.92282 15.0998 9.40341C15.0998 9.9768 14.949 10.4657 14.6474 10.87C14.3491 11.2744 13.9431 11.5545 13.4293 11.7102V11.7898C14.0723 11.8958 14.5745 12.1693 14.9357 12.6101C15.297 13.0476 15.4776 13.5895 15.4776 14.2358C15.4776 14.7893 15.3268 15.2865 15.0252 15.7273C14.7269 16.1648 14.3192 16.5095 13.8022 16.7614C13.2852 17.0133 12.6969 17.1392 12.0373 17.1392Z" fill="#334155"/>
</svg>
