<svg width="20" height="20" viewBox="0 0 20 20" fill="none" xmlns="http://www.w3.org/2000/svg">
<path d="M15.1893 8.75004C15.7127 9.39273 16.0274 10.2565 16.0274 11.3584C16.0274 12.3885 15.7523 13.2106 15.2889 13.8384C15.1207 14.0661 15.1562 14.597 15.2905 14.8461C15.6121 15.4424 15.0045 16.0959 14.3442 15.9445C13.8499 15.8312 13.3315 15.6779 12.8778 15.4722C12.7117 15.3969 12.5282 15.3665 12.347 15.387C12.1219 15.4125 11.8921 15.4251 11.6594 15.4251C10.5796 15.4251 9.56222 15.1538 8.78145 14.5834M12.6941 8.02507C12.6941 10.8297 10.6553 12.0918 8.32618 12.0918C8.09351 12.0918 7.86373 12.0792 7.63859 12.0537C7.45736 12.0332 7.27395 12.0636 7.10783 12.1389C6.65412 12.3445 6.13567 12.4978 5.6414 12.6111C4.98107 12.7625 4.37356 12.1091 4.69509 11.5128C4.82944 11.2636 4.86487 10.7328 4.69675 10.505C4.2333 9.87722 3.95825 9.05519 3.95825 8.02507C3.95825 5.22045 5.99702 3.95837 8.32618 3.95837C10.6553 3.95837 12.6941 5.22045 12.6941 8.02507Z" stroke="#ADA9BB" stroke-width="1.5" stroke-linecap="round" stroke-linejoin="round"/>
</svg>
