<svg width="63" height="64" viewBox="0 0 63 64" fill="none" xmlns="http://www.w3.org/2000/svg">
<path d="M21.3 24C21.3 20.229 21.3 18.343 22.472 17.172C23.644 16.001 25.529 16 29.3 16H33.3C37.071 16 38.957 16 40.128 17.172C41.299 18.344 41.3 20.229 41.3 24V26C41.3 29.771 41.3 31.657 40.128 32.828C38.956 33.999 37.071 34 33.3 34H29.3C25.529 34 23.643 34 22.472 32.828C21.301 31.656 21.3 29.771 21.3 26V24Z" stroke="#484554" stroke-width="1.5"/>
<path d="M26.3 16V14.5M36.3 16V14.5M21.8 21H40.8" stroke="#484554" stroke-width="1.5" stroke-linecap="round"/>
<path d="M36.8 29C36.8 29.1326 36.7473 29.2598 36.6535 29.3536C36.5598 29.4473 36.4326 29.5 36.3 29.5C36.1674 29.5 36.0402 29.4473 35.9464 29.3536C35.8527 29.2598 35.8 29.1326 35.8 29C35.8 28.8674 35.8527 28.7402 35.9464 28.6464C36.0402 28.5527 36.1674 28.5 36.3 28.5C36.4326 28.5 36.5598 28.5527 36.6535 28.6464C36.7473 28.7402 36.8 28.8674 36.8 29ZM36.8 25C36.8 25.1326 36.7473 25.2598 36.6535 25.3536C36.5598 25.4473 36.4326 25.5 36.3 25.5C36.1674 25.5 36.0402 25.4473 35.9464 25.3536C35.8527 25.2598 35.8 25.1326 35.8 25C35.8 24.8674 35.8527 24.7402 35.9464 24.6464C36.0402 24.5527 36.1674 24.5 36.3 24.5C36.4326 24.5 36.5598 24.5527 36.6535 24.6464C36.7473 24.7402 36.8 24.8674 36.8 25ZM31.8 29C31.8 29.1326 31.7473 29.2598 31.6535 29.3536C31.5598 29.4473 31.4326 29.5 31.3 29.5C31.1674 29.5 31.0402 29.4473 30.9464 29.3536C30.8527 29.2598 30.8 29.1326 30.8 29C30.8 28.8674 30.8527 28.7402 30.9464 28.6464C31.0402 28.5527 31.1674 28.5 31.3 28.5C31.4326 28.5 31.5598 28.5527 31.6535 28.6464C31.7473 28.7402 31.8 28.8674 31.8 29ZM31.8 25C31.8 25.1326 31.7473 25.2598 31.6535 25.3536C31.5598 25.4473 31.4326 25.5 31.3 25.5C31.1674 25.5 31.0402 25.4473 30.9464 25.3536C30.8527 25.2598 30.8 25.1326 30.8 25C30.8 24.8674 30.8527 24.7402 30.9464 24.6464C31.0402 24.5527 31.1674 24.5 31.3 24.5C31.4326 24.5 31.5598 24.5527 31.6535 24.6464C31.7473 24.7402 31.8 24.8674 31.8 25ZM26.8 29C26.8 29.1326 26.7473 29.2598 26.6535 29.3536C26.5598 29.4473 26.4326 29.5 26.3 29.5C26.1674 29.5 26.0402 29.4473 25.9464 29.3536C25.8527 29.2598 25.8 29.1326 25.8 29C25.8 28.8674 25.8527 28.7402 25.9464 28.6464C26.0402 28.5527 26.1674 28.5 26.3 28.5C26.4326 28.5 26.5598 28.5527 26.6535 28.6464C26.7473 28.7402 26.8 28.8674 26.8 29ZM26.8 25C26.8 25.1326 26.7473 25.2598 26.6535 25.3536C26.5598 25.4473 26.4326 25.5 26.3 25.5C26.1674 25.5 26.0402 25.4473 25.9464 25.3536C25.8527 25.2598 25.8 25.1326 25.8 25C25.8 24.8674 25.8527 24.7402 25.9464 24.6464C26.0402 24.5527 26.1674 24.5 26.3 24.5C26.4326 24.5 26.5598 24.5527 26.6535 24.6464C26.7473 24.7402 26.8 24.8674 26.8 25Z" fill="#484554" stroke="#484554"/>
<path d="M10.2888 59V48.8182H16.4337V49.9119H11.5218V53.3523H16.1155V54.446H11.5218V57.9062H16.5133V59H10.2888ZM24.7412 51.3636L21.9174 59H20.7242L17.9003 51.3636H19.1731L21.281 57.4489H21.3606L23.4685 51.3636H24.7412ZM29.2182 59.1591C28.4824 59.1591 27.8477 58.9967 27.314 58.6719C26.7837 58.3438 26.3744 57.8864 26.0861 57.2997C25.801 56.7098 25.6585 56.0237 25.6585 55.2415C25.6585 54.4593 25.801 53.7699 26.0861 53.1733C26.3744 52.5734 26.7755 52.1061 27.2892 51.7713C27.8062 51.4332 28.4094 51.2642 29.0988 51.2642C29.4966 51.2642 29.8893 51.3305 30.2771 51.4631C30.6649 51.5956 31.0179 51.8111 31.3361 52.1094C31.6542 52.4044 31.9078 52.7955 32.0967 53.2827C32.2856 53.7699 32.3801 54.3698 32.3801 55.0824V55.5795H26.4937V54.5653H31.1869C31.1869 54.1345 31.1007 53.75 30.9284 53.4119C30.7594 53.0739 30.5174 52.8071 30.2025 52.6115C29.891 52.416 29.5231 52.3182 29.0988 52.3182C28.6315 52.3182 28.2272 52.4342 27.8858 52.6662C27.5477 52.8949 27.2875 53.1932 27.1052 53.5611C26.9229 53.929 26.8318 54.3234 26.8318 54.7443V55.4205C26.8318 55.9972 26.9312 56.486 27.1301 56.8871C27.3323 57.2848 27.6123 57.5881 27.9703 57.7969C28.3282 58.0024 28.7442 58.1051 29.2182 58.1051C29.5264 58.1051 29.8048 58.062 30.0534 57.9759C30.3053 57.8864 30.5224 57.7538 30.7047 57.5781C30.887 57.3991 31.0278 57.1771 31.1272 56.9119L32.2608 57.2301C32.1415 57.6146 31.9409 57.9527 31.6592 58.2443C31.3775 58.5327 31.0295 58.758 30.6152 58.9205C30.2009 59.0795 29.7352 59.1591 29.2182 59.1591ZM35.3382 54.4062V59H34.1649V51.3636H35.2984V52.5568H35.3978C35.5768 52.169 35.8486 51.8575 36.2132 51.6222C36.5778 51.3835 37.0484 51.2642 37.6251 51.2642C38.1422 51.2642 38.5946 51.3703 38.9824 51.5824C39.3701 51.7912 39.6718 52.1094 39.8872 52.5369C40.1026 52.9612 40.2103 53.4981 40.2103 54.1477V59H39.037V54.2273C39.037 53.6274 38.8813 53.16 38.5697 52.8253C38.2582 52.4872 37.8306 52.3182 37.287 52.3182C36.9125 52.3182 36.5778 52.3994 36.2828 52.5618C35.9911 52.7242 35.7608 52.9612 35.5917 53.2727C35.4227 53.5843 35.3382 53.9621 35.3382 54.4062ZM45.6754 51.3636V52.358H41.718V51.3636H45.6754ZM42.8714 49.5341H44.0447V56.8125C44.0447 57.1439 44.0927 57.3925 44.1889 57.5582C44.2883 57.7206 44.4142 57.83 44.5667 57.8864C44.7225 57.9394 44.8865 57.9659 45.0589 57.9659C45.1882 57.9659 45.2942 57.9593 45.3771 57.946C45.4599 57.9295 45.5262 57.9162 45.5759 57.9062L45.8146 58.9602C45.735 58.9901 45.624 59.0199 45.4815 59.0497C45.339 59.0829 45.1583 59.0994 44.9396 59.0994C44.6081 59.0994 44.2833 59.0282 43.9651 58.8857C43.6503 58.7431 43.3884 58.526 43.1796 58.2344C42.9741 57.9427 42.8714 57.5748 42.8714 57.1307V49.5341ZM52.7127 53.0739L51.6587 53.3722C51.5924 53.1965 51.4946 53.0258 51.3654 52.8601C51.2394 52.6911 51.0671 52.5518 50.8483 52.4425C50.6296 52.3331 50.3495 52.2784 50.0081 52.2784C49.5408 52.2784 49.1513 52.3861 48.8398 52.6016C48.5315 52.8137 48.3774 53.0838 48.3774 53.4119C48.3774 53.7036 48.4835 53.9339 48.6956 54.103C48.9077 54.272 49.2392 54.4129 49.6899 54.5256L50.8234 54.804C51.5062 54.9697 52.015 55.2232 52.3497 55.5646C52.6845 55.9027 52.8519 56.3385 52.8519 56.8722C52.8519 57.3097 52.7259 57.7008 52.474 58.0455C52.2254 58.3902 51.8774 58.6619 51.43 58.8608C50.9825 59.0597 50.4622 59.1591 49.8689 59.1591C49.09 59.1591 48.4454 58.9901 47.935 58.652C47.4245 58.3139 47.1014 57.8201 46.9655 57.1705L48.0791 56.892C48.1852 57.303 48.3857 57.6113 48.6807 57.8168C48.979 58.0223 49.3684 58.125 49.849 58.125C50.3959 58.125 50.8301 58.009 51.1516 57.777C51.4764 57.5417 51.6388 57.2599 51.6388 56.9318C51.6388 56.6667 51.546 56.4446 51.3604 56.2656C51.1748 56.0833 50.8897 55.9474 50.5053 55.858L49.2325 55.5597C48.5332 55.3939 48.0195 55.1371 47.6913 54.7891C47.3665 54.4377 47.2041 53.9986 47.2041 53.4716C47.2041 53.0407 47.3251 52.6596 47.5671 52.3281C47.8123 51.9967 48.1454 51.7365 48.5663 51.5476C48.9906 51.3587 49.4712 51.2642 50.0081 51.2642C50.7638 51.2642 51.3571 51.4299 51.7879 51.7614C52.2221 52.0928 52.5304 52.5303 52.7127 53.0739Z" fill="#64748B"/>
</svg>
