<svg width="63" height="64" viewBox="0 0 63 64" fill="none" xmlns="http://www.w3.org/2000/svg">
<rect width="62.2" height="4" fill="#8576FF"/>
<path d="M25.8502 31.2502H36.3502C37.4547 31.2502 38.3502 30.3548 38.3502 29.2502V21.7502L31.1002 16.7502L23.8502 21.7502V29.2502C23.8502 30.3548 24.7456 31.2502 25.8502 31.2502Z" stroke="#64748B" stroke-width="1.5" stroke-linecap="round" stroke-linejoin="round"/>
<path d="M28.8495 27.7493C28.8495 26.6447 29.745 25.7493 30.8495 25.7493H31.3495C32.4541 25.7493 33.3495 26.6447 33.3495 27.7493V31.2493H28.8495V27.7493Z" stroke="#64748B" stroke-width="1.5" stroke-linecap="round" stroke-linejoin="round"/>
<path d="M12.8164 59V48.8182H14.0493V53.3523H19.4783V48.8182H20.7112V59H19.4783V54.446H14.0493V59H12.8164ZM26.1228 59.1591C25.4334 59.1591 24.8285 58.995 24.3082 58.6669C23.7911 58.3388 23.3868 57.8797 23.0951 57.2898C22.8068 56.6998 22.6626 56.0104 22.6626 55.2216C22.6626 54.4261 22.8068 53.7318 23.0951 53.1385C23.3868 52.5452 23.7911 52.0845 24.3082 51.7564C24.8285 51.4283 25.4334 51.2642 26.1228 51.2642C26.8122 51.2642 27.4154 51.4283 27.9325 51.7564C28.4528 52.0845 28.8572 52.5452 29.1455 53.1385C29.4372 53.7318 29.583 54.4261 29.583 55.2216C29.583 56.0104 29.4372 56.6998 29.1455 57.2898C28.8572 57.8797 28.4528 58.3388 27.9325 58.6669C27.4154 58.995 26.8122 59.1591 26.1228 59.1591ZM26.1228 58.1051C26.6465 58.1051 27.0774 57.9709 27.4154 57.7024C27.7535 57.4339 28.0037 57.081 28.1661 56.6435C28.3285 56.206 28.4097 55.732 28.4097 55.2216C28.4097 54.7112 28.3285 54.2356 28.1661 53.7947C28.0037 53.3539 27.7535 52.9976 27.4154 52.7259C27.0774 52.4541 26.6465 52.3182 26.1228 52.3182C25.5991 52.3182 25.1683 52.4541 24.8302 52.7259C24.4921 52.9976 24.2419 53.3539 24.0795 53.7947C23.9171 54.2356 23.8359 54.7112 23.8359 55.2216C23.8359 55.732 23.9171 56.206 24.0795 56.6435C24.2419 57.081 24.4921 57.4339 24.8302 57.7024C25.1683 57.9709 25.5991 58.1051 26.1228 58.1051ZM31.3741 59V51.3636H32.5076V52.5568H32.607C32.7661 52.1491 33.023 51.8326 33.3776 51.6072C33.7323 51.3786 34.1582 51.2642 34.6553 51.2642C35.1591 51.2642 35.5784 51.3786 35.9131 51.6072C36.2512 51.8326 36.5147 52.1491 36.7036 52.5568H36.7832C36.9787 52.1624 37.272 51.8492 37.6631 51.6172C38.0542 51.3819 38.5232 51.2642 39.0701 51.2642C39.7528 51.2642 40.3113 51.478 40.7455 51.9055C41.1797 52.3298 41.3968 52.991 41.3968 53.8892V59H40.2235V53.8892C40.2235 53.3258 40.0694 52.9231 39.7611 52.6811C39.4529 52.4392 39.09 52.3182 38.6724 52.3182C38.1354 52.3182 37.7195 52.4806 37.4245 52.8054C37.1295 53.1269 36.982 53.5346 36.982 54.0284V59H35.7888V53.7699C35.7888 53.3357 35.648 52.986 35.3662 52.7209C35.0845 52.4524 34.7216 52.3182 34.2775 52.3182C33.9725 52.3182 33.6875 52.3994 33.4224 52.5618C33.1605 52.7242 32.9484 52.9496 32.786 53.2379C32.6269 53.523 32.5474 53.8527 32.5474 54.2273V59H31.3741ZM46.7437 59.1591C46.0079 59.1591 45.3732 58.9967 44.8396 58.6719C44.3093 58.3438 43.9 57.8864 43.6116 57.2997C43.3266 56.7098 43.1841 56.0237 43.1841 55.2415C43.1841 54.4593 43.3266 53.7699 43.6116 53.1733C43.9 52.5734 44.301 52.1061 44.8148 51.7713C45.3318 51.4332 45.935 51.2642 46.6244 51.2642C47.0221 51.2642 47.4149 51.3305 47.8027 51.4631C48.1905 51.5956 48.5434 51.8111 48.8616 52.1094C49.1798 52.4044 49.4334 52.7955 49.6223 53.2827C49.8112 53.7699 49.9057 54.3698 49.9057 55.0824V55.5795H44.0193V54.5653H48.7125C48.7125 54.1345 48.6263 53.75 48.454 53.4119C48.2849 53.0739 48.043 52.8071 47.7281 52.6115C47.4166 52.416 47.0487 52.3182 46.6244 52.3182C46.1571 52.3182 45.7527 52.4342 45.4113 52.6662C45.0733 52.8949 44.8131 53.1932 44.6308 53.5611C44.4485 53.929 44.3574 54.3234 44.3574 54.7443V55.4205C44.3574 55.9972 44.4568 56.486 44.6557 56.8871C44.8578 57.2848 45.1379 57.5881 45.4959 57.7969C45.8538 58.0024 46.2698 58.1051 46.7437 58.1051C47.052 58.1051 47.3304 58.062 47.579 57.9759C47.8309 57.8864 48.0479 57.7538 48.2302 57.5781C48.4125 57.3991 48.5534 57.1771 48.6528 56.9119L49.7863 57.2301C49.667 57.6146 49.4665 57.9527 49.1848 58.2443C48.9031 58.5327 48.555 58.758 48.1407 58.9205C47.7264 59.0795 47.2608 59.1591 46.7437 59.1591Z" fill="#8576FF"/>
</svg>
