<svg width="36" height="36" viewBox="0 0 36 36" fill="none" xmlns="http://www.w3.org/2000/svg">
<rect x="0.5" y="0.5" width="35" height="35" rx="1.5" fill="white"/>
<rect x="0.5" y="0.5" width="35" height="35" rx="1.5" stroke="#E2E8F0"/>
<path d="M18.4166 13.8334C18.4166 14.0635 18.2301 14.25 18 14.25C17.7699 14.25 17.5833 14.0635 17.5833 13.8334C17.5833 13.6032 17.7699 13.4167 18 13.4167C18.2301 13.4167 18.4166 13.6032 18.4166 13.8334Z" stroke="#141414"/>
<path d="M18.4166 18C18.4166 18.2301 18.2301 18.4167 18 18.4167C17.7699 18.4167 17.5833 18.2301 17.5833 18C17.5833 17.7699 17.7699 17.5834 18 17.5834C18.2301 17.5834 18.4166 17.7699 18.4166 18Z" stroke="#141414"/>
<path d="M18.4166 22.1667C18.4166 22.3968 18.2301 22.5834 18 22.5834C17.7699 22.5834 17.5833 22.3968 17.5833 22.1667C17.5833 21.9366 17.7699 21.75 18 21.75C18.2301 21.75 18.4166 21.9366 18.4166 22.1667Z" stroke="#141414"/>
</svg>
