<svg width="63" height="64" viewBox="0 0 63 64" fill="none" xmlns="http://www.w3.org/2000/svg">
<path d="M27.0975 29C28.244 27.625 29.9698 26.75 31.9001 26.75C33.8303 26.75 35.5561 27.625 36.7026 29M39.15 24C39.15 28.0041 35.9041 31.25 31.9 31.25C27.8959 31.25 24.65 28.0041 24.65 24C24.65 19.9959 27.8959 16.75 31.9 16.75C35.9041 16.75 39.15 19.9959 39.15 24ZM34.15 22C34.15 23.2426 33.1426 24.25 31.9 24.25C30.6574 24.25 29.65 23.2426 29.65 22C29.65 20.7574 30.6574 19.75 31.9 19.75C33.1426 19.75 34.15 20.7574 34.15 22Z" stroke="#64748B" stroke-width="1.5" stroke-linecap="round" stroke-linejoin="round"/>
<path d="M12.1056 59V48.8182H15.5459C16.3447 48.8182 16.9976 48.9624 17.5047 49.2507C18.0152 49.5357 18.393 49.9219 18.6383 50.4091C18.8835 50.8963 19.0062 51.4399 19.0062 52.0398C19.0062 52.6397 18.8835 53.1849 18.6383 53.6754C18.3963 54.166 18.0218 54.5571 17.5147 54.8487C17.0076 55.1371 16.358 55.2812 15.5658 55.2812H13.0999V54.1875H15.5261C16.0729 54.1875 16.5121 54.093 16.8435 53.9041C17.175 53.7152 17.4153 53.46 17.5644 53.1385C17.7169 52.8137 17.7931 52.4474 17.7931 52.0398C17.7931 51.6321 17.7169 51.2675 17.5644 50.946C17.4153 50.6245 17.1733 50.3726 16.8386 50.1903C16.5038 50.0047 16.0597 49.9119 15.5062 49.9119H13.3386V59H12.1056ZM20.8332 59V51.3636H21.9667V52.517H22.0463C22.1855 52.1392 22.4374 51.8326 22.802 51.5973C23.1666 51.362 23.5775 51.2443 24.0349 51.2443C24.1211 51.2443 24.2288 51.246 24.3581 51.2493C24.4873 51.2526 24.5851 51.2576 24.6514 51.2642V52.4574C24.6116 52.4474 24.5205 52.4325 24.378 52.4126C24.2388 52.3894 24.0913 52.3778 23.9355 52.3778C23.5643 52.3778 23.2328 52.4557 22.9412 52.6115C22.6528 52.764 22.4241 52.9761 22.2551 53.2479C22.0894 53.5163 22.0065 53.8229 22.0065 54.1676V59H20.8332ZM28.9121 59.1591C28.2227 59.1591 27.6178 58.995 27.0974 58.6669C26.5804 58.3388 26.176 57.8797 25.8844 57.2898C25.596 56.6998 25.4518 56.0104 25.4518 55.2216C25.4518 54.4261 25.596 53.7318 25.8844 53.1385C26.176 52.5452 26.5804 52.0845 27.0974 51.7564C27.6178 51.4283 28.2227 51.2642 28.9121 51.2642C29.6015 51.2642 30.2047 51.4283 30.7217 51.7564C31.2421 52.0845 31.6464 52.5452 31.9348 53.1385C32.2265 53.7318 32.3723 54.4261 32.3723 55.2216C32.3723 56.0104 32.2265 56.6998 31.9348 57.2898C31.6464 57.8797 31.2421 58.3388 30.7217 58.6669C30.2047 58.995 29.6015 59.1591 28.9121 59.1591ZM28.9121 58.1051C29.4357 58.1051 29.8666 57.9709 30.2047 57.7024C30.5427 57.4339 30.793 57.081 30.9554 56.6435C31.1178 56.206 31.199 55.732 31.199 55.2216C31.199 54.7112 31.1178 54.2356 30.9554 53.7947C30.793 53.3539 30.5427 52.9976 30.2047 52.7259C29.8666 52.4541 29.4357 52.3182 28.9121 52.3182C28.3884 52.3182 27.9575 52.4541 27.6194 52.7259C27.2814 52.9976 27.0311 53.3539 26.8687 53.7947C26.7063 54.2356 26.6251 54.7112 26.6251 55.2216C26.6251 55.732 26.7063 56.206 26.8687 56.6435C27.0311 57.081 27.2814 57.4339 27.6194 57.7024C27.9575 57.9709 28.3884 58.1051 28.9121 58.1051ZM37.5639 51.3636V52.358H33.4474V51.3636H37.5639ZM34.6803 59V50.3097C34.6803 49.8722 34.7831 49.5076 34.9886 49.2159C35.1941 48.9242 35.4609 48.7055 35.789 48.5597C36.1171 48.4138 36.4635 48.3409 36.8281 48.3409C37.1164 48.3409 37.3518 48.3641 37.534 48.4105C37.7163 48.4569 37.8522 48.5 37.9417 48.5398L37.6036 49.554C37.544 49.5341 37.4611 49.5092 37.3551 49.4794C37.2523 49.4496 37.1164 49.4347 36.9474 49.4347C36.5596 49.4347 36.2795 49.5324 36.1072 49.728C35.9382 49.9235 35.8536 50.2102 35.8536 50.5881V59H34.6803ZM39.2082 59V51.3636H40.3815V59H39.2082ZM39.8048 50.0909C39.5761 50.0909 39.3789 50.013 39.2132 49.8572C39.0508 49.7015 38.9696 49.5142 38.9696 49.2955C38.9696 49.0767 39.0508 48.8894 39.2132 48.7337C39.3789 48.5779 39.5761 48.5 39.8048 48.5C40.0335 48.5 40.2291 48.5779 40.3915 48.7337C40.5572 48.8894 40.64 49.0767 40.64 49.2955C40.64 49.5142 40.5572 49.7015 40.3915 49.8572C40.2291 50.013 40.0335 50.0909 39.8048 50.0909ZM43.7038 48.8182V59H42.5305V48.8182H43.7038ZM49.0545 59.1591C48.3187 59.1591 47.684 58.9967 47.1503 58.6719C46.62 58.3438 46.2107 57.8864 45.9224 57.2997C45.6373 56.7098 45.4948 56.0237 45.4948 55.2415C45.4948 54.4593 45.6373 53.7699 45.9224 53.1733C46.2107 52.5734 46.6118 52.1061 47.1255 51.7713C47.6425 51.4332 48.2457 51.2642 48.9351 51.2642C49.3329 51.2642 49.7256 51.3305 50.1134 51.4631C50.5012 51.5956 50.8542 51.8111 51.1724 52.1094C51.4905 52.4044 51.7441 52.7955 51.933 53.2827C52.1219 53.7699 52.2164 54.3698 52.2164 55.0824V55.5795H46.33V54.5653H51.0232C51.0232 54.1345 50.937 53.75 50.7647 53.4119C50.5957 53.0739 50.3537 52.8071 50.0388 52.6115C49.7273 52.416 49.3594 52.3182 48.9351 52.3182C48.4678 52.3182 48.0635 52.4342 47.7221 52.6662C47.384 52.8949 47.1238 53.1932 46.9415 53.5611C46.7592 53.929 46.6681 54.3234 46.6681 54.7443V55.4205C46.6681 55.9972 46.7675 56.486 46.9664 56.8871C47.1686 57.2848 47.4486 57.5881 47.8066 57.7969C48.1645 58.0024 48.5805 58.1051 49.0545 58.1051C49.3627 58.1051 49.6411 58.062 49.8897 57.9759C50.1416 57.8864 50.3587 57.7538 50.541 57.5781C50.7233 57.3991 50.8641 57.1771 50.9636 56.9119L52.0971 57.2301C51.9778 57.6146 51.7772 57.9527 51.4955 58.2443C51.2138 58.5327 50.8658 58.758 50.4515 58.9205C50.0372 59.0795 49.5715 59.1591 49.0545 59.1591Z" fill="#64748B"/>
</svg>
