<svg width="63" height="64" viewBox="0 0 63 64" fill="none" xmlns="http://www.w3.org/2000/svg">
<path d="M22.7 22C22.7 18.229 22.7 16.343 23.872 15.172C25.044 14.001 26.929 14 30.7 14H32.7C36.471 14 38.357 14 39.528 15.172C40.699 16.344 40.7 18.229 40.7 22V26C40.7 29.771 40.7 31.657 39.528 32.828C38.356 33.999 36.471 34 32.7 34H30.7C26.929 34 25.043 34 23.872 32.828C22.701 31.656 22.7 29.771 22.7 26V22Z" stroke="#484554" stroke-width="1.5"/>
<path d="M27.7 22H35.7M27.7 26H32.7" stroke="#484554" stroke-width="1.5" stroke-linecap="round"/>
<path d="M7.00422 59V48.8182H10.4446C11.24 48.8182 11.893 48.9541 12.4034 49.2259C12.9138 49.4943 13.2916 49.8639 13.5369 50.3345C13.7822 50.8052 13.9048 51.3404 13.9048 51.9403C13.9048 52.5402 13.7822 53.0722 13.5369 53.5362C13.2916 54.0002 12.9154 54.3648 12.4083 54.63C11.9012 54.8918 11.2533 55.0227 10.4644 55.0227H7.68036V53.9091H10.4247C10.9682 53.9091 11.4057 53.8295 11.7372 53.6705C12.0719 53.5114 12.3139 53.286 12.463 52.9943C12.6155 52.6993 12.6917 52.348 12.6917 51.9403C12.6917 51.5327 12.6155 51.1764 12.463 50.8714C12.3106 50.5665 12.067 50.3312 11.7322 50.1655C11.3974 49.9964 10.955 49.9119 10.4048 49.9119H8.23717V59H7.00422ZM11.7968 54.4261L14.3025 59H12.8707L10.4048 54.4261H11.7968ZM18.9199 59.1591C18.1841 59.1591 17.5494 58.9967 17.0158 58.6719C16.4855 58.3438 16.0761 57.8864 15.7878 57.2997C15.5027 56.7098 15.3602 56.0237 15.3602 55.2415C15.3602 54.4593 15.5027 53.7699 15.7878 53.1733C16.0761 52.5734 16.4772 52.1061 16.9909 51.7713C17.5079 51.4332 18.1112 51.2642 18.8006 51.2642C19.1983 51.2642 19.591 51.3305 19.9788 51.4631C20.3666 51.5956 20.7196 51.8111 21.0378 52.1094C21.356 52.4044 21.6095 52.7955 21.7984 53.2827C21.9874 53.7699 22.0818 54.3698 22.0818 55.0824V55.5795H16.1954V54.5653H20.8886C20.8886 54.1345 20.8025 53.75 20.6301 53.4119C20.4611 53.0739 20.2191 52.8071 19.9043 52.6115C19.5927 52.416 19.2248 52.3182 18.8006 52.3182C18.3332 52.3182 17.9289 52.4342 17.5875 52.6662C17.2494 52.8949 16.9892 53.1932 16.807 53.5611C16.6247 53.929 16.5335 54.3234 16.5335 54.7443V55.4205C16.5335 55.9972 16.6329 56.486 16.8318 56.8871C17.034 57.2848 17.3141 57.5881 17.672 57.7969C18.03 58.0024 18.4459 58.1051 18.9199 58.1051C19.2281 58.1051 19.5065 58.062 19.7551 57.9759C20.007 57.8864 20.2241 57.7538 20.4064 57.5781C20.5887 57.3991 20.7295 57.1771 20.829 56.9119L21.9625 57.2301C21.8432 57.6146 21.6427 57.9527 21.3609 58.2443C21.0792 58.5327 20.7312 58.758 20.3169 58.9205C19.9026 59.0795 19.4369 59.1591 18.9199 59.1591ZM23.8666 61.8636V51.3636H25.0001V52.5767H25.1393C25.2255 52.4441 25.3448 52.2751 25.4973 52.0696C25.6531 51.8608 25.8751 51.6752 26.1635 51.5128C26.4552 51.3471 26.8496 51.2642 27.3467 51.2642C27.9897 51.2642 28.5565 51.425 29.047 51.7464C29.5375 52.0679 29.9204 52.5237 30.1954 53.1136C30.4705 53.7036 30.6081 54.3996 30.6081 55.2017C30.6081 56.0104 30.4705 56.7114 30.1954 57.3047C29.9204 57.8946 29.5392 58.352 29.052 58.6768C28.5648 58.9983 28.003 59.1591 27.3666 59.1591C26.8761 59.1591 26.4833 59.0779 26.1883 58.9155C25.8934 58.7498 25.6663 58.5625 25.5072 58.3537C25.3481 58.1416 25.2255 57.9659 25.1393 57.8267H25.0399V61.8636H23.8666ZM25.02 55.1818C25.02 55.7585 25.1045 56.2673 25.2736 56.7081C25.4426 57.1456 25.6895 57.4886 26.0143 57.7372C26.3392 57.9825 26.7369 58.1051 27.2075 58.1051C27.6981 58.1051 28.1074 57.9759 28.4355 57.7173C28.7669 57.4555 29.0155 57.1042 29.1812 56.6634C29.3503 56.2192 29.4348 55.7254 29.4348 55.1818C29.4348 54.6449 29.3519 54.161 29.1862 53.7301C29.0238 53.2959 28.7769 52.9529 28.4454 52.701C28.1173 52.4458 27.7047 52.3182 27.2075 52.3182C26.7302 52.3182 26.3292 52.4392 26.0044 52.6811C25.6796 52.9197 25.4343 53.2545 25.2686 53.6854C25.1029 54.1129 25.02 54.6117 25.02 55.1818ZM35.5001 59.1591C34.8107 59.1591 34.2059 58.995 33.6855 58.6669C33.1685 58.3388 32.7641 57.8797 32.4724 57.2898C32.1841 56.6998 32.0399 56.0104 32.0399 55.2216C32.0399 54.4261 32.1841 53.7318 32.4724 53.1385C32.7641 52.5452 33.1685 52.0845 33.6855 51.7564C34.2059 51.4283 34.8107 51.2642 35.5001 51.2642C36.1895 51.2642 36.7927 51.4283 37.3098 51.7564C37.8302 52.0845 38.2345 52.5452 38.5229 53.1385C38.8145 53.7318 38.9604 54.4261 38.9604 55.2216C38.9604 56.0104 38.8145 56.6998 38.5229 57.2898C38.2345 57.8797 37.8302 58.3388 37.3098 58.6669C36.7927 58.995 36.1895 59.1591 35.5001 59.1591ZM35.5001 58.1051C36.0238 58.1051 36.4547 57.9709 36.7927 57.7024C37.1308 57.4339 37.3811 57.081 37.5435 56.6435C37.7059 56.206 37.7871 55.732 37.7871 55.2216C37.7871 54.7112 37.7059 54.2356 37.5435 53.7947C37.3811 53.3539 37.1308 52.9976 36.7927 52.7259C36.4547 52.4541 36.0238 52.3182 35.5001 52.3182C34.9765 52.3182 34.5456 52.4541 34.2075 52.7259C33.8695 52.9976 33.6192 53.3539 33.4568 53.7947C33.2944 54.2356 33.2132 54.7112 33.2132 55.2216C33.2132 55.732 33.2944 56.206 33.4568 56.6435C33.6192 57.081 33.8695 57.4339 34.2075 57.7024C34.5456 57.9709 34.9765 58.1051 35.5001 58.1051ZM40.7514 59V51.3636H41.8849V52.517H41.9644C42.1036 52.1392 42.3555 51.8326 42.7201 51.5973C43.0847 51.362 43.4957 51.2443 43.9531 51.2443C44.0393 51.2443 44.147 51.246 44.2762 51.2493C44.4055 51.2526 44.5033 51.2576 44.5696 51.2642V52.4574C44.5298 52.4474 44.4386 52.4325 44.2961 52.4126C44.1569 52.3894 44.0094 52.3778 43.8536 52.3778C43.4824 52.3778 43.151 52.4557 42.8593 52.6115C42.571 52.764 42.3423 52.9761 42.1733 53.2479C42.0075 53.5163 41.9247 53.8229 41.9247 54.1676V59H40.7514ZM49.7599 51.3636V52.358H45.8025V51.3636H49.7599ZM46.9559 49.5341H48.1292V56.8125C48.1292 57.1439 48.1773 57.3925 48.2734 57.5582C48.3728 57.7206 48.4988 57.83 48.6512 57.8864C48.807 57.9394 48.9711 57.9659 49.1434 57.9659C49.2727 57.9659 49.3787 57.9593 49.4616 57.946C49.5445 57.9295 49.6108 57.9162 49.6605 57.9062L49.8991 58.9602C49.8196 58.9901 49.7085 59.0199 49.566 59.0497C49.4235 59.0829 49.2429 59.0994 49.0241 59.0994C48.6927 59.0994 48.3679 59.0282 48.0497 58.8857C47.7348 58.7431 47.473 58.526 47.2642 58.2344C47.0587 57.9427 46.9559 57.5748 46.9559 57.1307V49.5341ZM56.7972 53.0739L55.7432 53.3722C55.6769 53.1965 55.5791 53.0258 55.4499 52.8601C55.3239 52.6911 55.1516 52.5518 54.9328 52.4425C54.7141 52.3331 54.434 52.2784 54.0926 52.2784C53.6253 52.2784 53.2359 52.3861 52.9243 52.6016C52.6161 52.8137 52.462 53.0838 52.462 53.4119C52.462 53.7036 52.568 53.9339 52.7801 54.103C52.9923 54.272 53.3237 54.4129 53.7745 54.5256L54.908 54.804C55.5907 54.9697 56.0995 55.2232 56.4343 55.5646C56.769 55.9027 56.9364 56.3385 56.9364 56.8722C56.9364 57.3097 56.8104 57.7008 56.5586 58.0455C56.31 58.3902 55.962 58.6619 55.5145 58.8608C55.0671 59.0597 54.5467 59.1591 53.9534 59.1591C53.1746 59.1591 52.5299 58.9901 52.0195 58.652C51.5091 58.3139 51.1859 57.8201 51.05 57.1705L52.1637 56.892C52.2697 57.303 52.4702 57.6113 52.7652 57.8168C53.0635 58.0223 53.453 58.125 53.9336 58.125C54.4804 58.125 54.9146 58.009 55.2361 57.777C55.5609 57.5417 55.7233 57.2599 55.7233 56.9318C55.7233 56.6667 55.6305 56.4446 55.4449 56.2656C55.2593 56.0833 54.9743 55.9474 54.5898 55.858L53.3171 55.5597C52.6177 55.3939 52.104 55.1371 51.7759 54.7891C51.4511 54.4377 51.2887 53.9986 51.2887 53.4716C51.2887 53.0407 51.4096 52.6596 51.6516 52.3281C51.8969 51.9967 52.23 51.7365 52.6509 51.5476C53.0751 51.3587 53.5557 51.2642 54.0926 51.2642C54.8483 51.2642 55.4416 51.4299 55.8725 51.7614C56.3067 52.0928 56.6149 52.5303 56.7972 53.0739Z" fill="#64748B"/>
</svg>
