<svg width="20" height="20" viewBox="0 0 20 20" fill="none" xmlns="http://www.w3.org/2000/svg">
<path d="M4.68435 12.469L5.60169 12.6126C6.27886 12.7187 6.76246 13.3389 6.71259 14.0376L6.64501 14.9847C6.62532 15.2606 6.77231 15.5204 7.01575 15.6405L7.69423 15.9748C7.93768 16.095 8.22836 16.05 8.42718 15.8627L9.10895 15.2183C9.61158 14.7431 10.3872 14.7431 10.8905 15.2183L11.5722 15.8627C11.7711 16.0507 12.0611 16.095 12.3052 15.9748L12.985 15.6399C13.2278 15.5204 13.3741 15.2613 13.3544 14.9861L13.2868 14.0376C13.237 13.3389 13.7206 12.7187 14.3977 12.6126L15.3151 12.469C15.5821 12.4273 15.7974 12.2226 15.8577 11.9528L16.0251 11.2023C16.0854 10.9325 15.9785 10.6526 15.7554 10.4969L14.9896 9.96056C14.4246 9.56453 14.2521 8.79127 14.5933 8.1838L15.0559 7.36086C15.1904 7.12123 15.1681 6.82119 14.9995 6.60505L14.5303 6.00296C14.3616 5.78682 14.0808 5.69754 13.8223 5.77876L12.9351 6.05666C12.2796 6.26205 11.5808 5.91771 11.3288 5.26594L10.9889 4.38461C10.8892 4.12686 10.6457 3.9577 10.3747 3.95838L9.62274 3.96039C9.35174 3.96106 9.10895 4.13155 9.01053 4.38998L8.67916 5.26124C8.42981 5.91704 7.7277 6.26407 7.07021 6.05733L6.14631 5.76735C5.88712 5.68546 5.60497 5.77541 5.43633 5.99289L4.97044 6.59566C4.80181 6.81381 4.78146 7.11452 4.91861 7.35415L5.39171 8.1791C5.74014 8.78724 5.56953 9.56788 5.00128 9.96593L4.24471 10.4962C4.02161 10.6526 3.91465 10.9325 3.97502 11.2017L4.14235 11.9521C4.20206 12.2226 4.41729 12.4273 4.68435 12.469Z" stroke="#ADA9BB" stroke-width="1.5" stroke-linecap="round" stroke-linejoin="round"/>
<path d="M11.3259 8.67415C12.0581 9.4063 12.0581 10.5938 11.3259 11.3259C10.5938 12.0581 9.4063 12.0581 8.67415 11.3259C7.942 10.5938 7.942 9.4063 8.67415 8.67415C9.4063 7.942 10.5938 7.942 11.3259 8.67415Z" stroke="#ADA9BB" stroke-width="1.5" stroke-linecap="round" stroke-linejoin="round"/>
</svg>
