<svg width="63" height="64" viewBox="0 0 63 64" fill="none" xmlns="http://www.w3.org/2000/svg">
<path d="M29.5 22C31.7092 22 33.5 20.2091 33.5 18C33.5 15.7909 31.7092 14 29.5 14C27.2909 14 25.5 15.7909 25.5 18C25.5 20.2091 27.2909 22 29.5 22Z" stroke="#484554" stroke-width="1.5"/>
<path d="M29.5 33C33.366 33 36.5 31.2091 36.5 29C36.5 26.7909 33.366 25 29.5 25C25.634 25 22.5 26.7909 22.5 29C22.5 31.2091 25.634 33 29.5 33Z" stroke="#484554" stroke-width="1.5"/>
<path d="M38.5 14C38.5 14 40.5 15.2 40.5 18C40.5 20.8 38.5 22 38.5 22M36.5 16C36.5 16 37.5 16.6 37.5 18C37.5 19.4 36.5 20 36.5 20" stroke="#484554" stroke-width="1.5" stroke-linecap="round"/>
<path d="M7.56679 51.3636C7.50713 50.8598 7.26518 50.4688 6.84093 50.1903C6.41669 49.9119 5.89633 49.7727 5.27985 49.7727C4.8291 49.7727 4.43468 49.8456 4.09662 49.9915C3.76186 50.1373 3.50002 50.3378 3.3111 50.593C3.1255 50.8482 3.0327 51.1383 3.0327 51.4631C3.0327 51.7348 3.09733 51.9685 3.22659 52.1641C3.35916 52.3563 3.5282 52.517 3.73369 52.6463C3.93918 52.7723 4.15462 52.8767 4.38 52.9595C4.60538 53.0391 4.81252 53.1037 5.00145 53.1534L6.03554 53.4318C6.30069 53.5014 6.59567 53.5975 6.92048 53.7202C7.2486 53.8428 7.56181 54.0102 7.86011 54.2223C8.16172 54.4311 8.4103 54.6996 8.60585 55.0277C8.8014 55.3558 8.89917 55.7585 8.89917 56.2358C8.89917 56.786 8.755 57.2831 8.46664 57.7273C8.18161 58.1714 7.76399 58.5244 7.2138 58.7862C6.66693 59.0481 6.00239 59.179 5.2202 59.179C4.49103 59.179 3.85964 59.0613 3.32602 58.826C2.79572 58.5907 2.3781 58.2625 2.07318 57.8416C1.77157 57.4207 1.60088 56.9318 1.5611 56.375H2.83383C2.86698 56.7595 2.99624 57.0777 3.22162 57.3295C3.45031 57.5781 3.73866 57.7637 4.08667 57.8864C4.438 58.0057 4.81584 58.0653 5.2202 58.0653C5.69084 58.0653 6.11342 57.9891 6.48795 57.8366C6.86248 57.6809 7.15912 57.4654 7.37787 57.1903C7.59662 56.9119 7.70599 56.5871 7.70599 56.2159C7.70599 55.8778 7.61153 55.6027 7.42261 55.3906C7.23369 55.1785 6.98511 55.0062 6.67687 54.8736C6.36863 54.741 6.03554 54.625 5.67758 54.5256L4.42474 54.1676C3.62929 53.9389 2.99955 53.6125 2.53554 53.1882C2.07152 52.764 1.83951 52.2088 1.83951 51.5227C1.83951 50.9527 1.99363 50.4555 2.30187 50.0312C2.61342 49.6037 3.03104 49.2723 3.55471 49.0369C4.0817 48.7983 4.67001 48.679 5.31963 48.679C5.97588 48.679 6.55921 48.7966 7.06963 49.032C7.58004 49.264 7.9844 49.5821 8.2827 49.9865C8.58431 50.3909 8.7434 50.8499 8.75997 51.3636H7.56679ZM10.7672 61.8636V51.3636H11.9008V52.5767H12.04C12.1261 52.4441 12.2455 52.2751 12.3979 52.0696C12.5537 51.8608 12.7758 51.6752 13.0641 51.5128C13.3558 51.3471 13.7502 51.2642 14.2474 51.2642C14.8904 51.2642 15.4571 51.425 15.9476 51.7464C16.4382 52.0679 16.821 52.5237 17.0961 53.1136C17.3712 53.7036 17.5087 54.3996 17.5087 55.2017C17.5087 56.0104 17.3712 56.7114 17.0961 57.3047C16.821 57.8946 16.4398 58.352 15.9526 58.6768C15.4654 58.9983 14.9036 59.1591 14.2672 59.1591C13.7767 59.1591 13.384 59.0779 13.089 58.9155C12.794 58.7498 12.567 58.5625 12.4079 58.3537C12.2488 58.1416 12.1261 57.9659 12.04 57.8267H11.9405V61.8636H10.7672ZM11.9207 55.1818C11.9207 55.7585 12.0052 56.2673 12.1742 56.7081C12.3432 57.1456 12.5902 57.4886 12.915 57.7372C13.2398 57.9825 13.6375 58.1051 14.1082 58.1051C14.5987 58.1051 15.008 57.9759 15.3361 57.7173C15.6676 57.4555 15.9162 57.1042 16.0819 56.6634C16.2509 56.2192 16.3354 55.7254 16.3354 55.1818C16.3354 54.6449 16.2526 54.161 16.0869 53.7301C15.9244 53.2959 15.6775 52.9529 15.3461 52.701C15.018 52.4458 14.6053 52.3182 14.1082 52.3182C13.6309 52.3182 13.2298 52.4392 12.905 52.6811C12.5802 52.9197 12.335 53.2545 12.1692 53.6854C12.0035 54.1129 11.9207 54.6117 11.9207 55.1818ZM22.5002 59.1591C21.7644 59.1591 21.1297 58.9967 20.5961 58.6719C20.0658 58.3438 19.6565 57.8864 19.3681 57.2997C19.0831 56.7098 18.9405 56.0237 18.9405 55.2415C18.9405 54.4593 19.0831 53.7699 19.3681 53.1733C19.6565 52.5734 20.0575 52.1061 20.5712 51.7713C21.0883 51.4332 21.6915 51.2642 22.3809 51.2642C22.7786 51.2642 23.1714 51.3305 23.5592 51.4631C23.9469 51.5956 24.2999 51.8111 24.6181 52.1094C24.9363 52.4044 25.1898 52.7955 25.3788 53.2827C25.5677 53.7699 25.6621 54.3698 25.6621 55.0824V55.5795H19.7758V54.5653H24.469C24.469 54.1345 24.3828 53.75 24.2104 53.4119C24.0414 53.0739 23.7994 52.8071 23.4846 52.6115C23.173 52.416 22.8051 52.3182 22.3809 52.3182C21.9136 52.3182 21.5092 52.4342 21.1678 52.6662C20.8297 52.8949 20.5696 53.1932 20.3873 53.5611C20.205 53.929 20.1138 54.3234 20.1138 54.7443V55.4205C20.1138 55.9972 20.2133 56.486 20.4121 56.8871C20.6143 57.2848 20.8944 57.5881 21.2523 57.7969C21.6103 58.0024 22.0262 58.1051 22.5002 58.1051C22.8084 58.1051 23.0869 58.062 23.3354 57.9759C23.5873 57.8864 23.8044 57.7538 23.9867 57.5781C24.169 57.3991 24.3099 57.1771 24.4093 56.9119L25.5428 57.2301C25.4235 57.6146 25.223 57.9527 24.9413 58.2443C24.6595 58.5327 24.3115 58.758 23.8972 58.9205C23.4829 59.0795 23.0172 59.1591 22.5002 59.1591ZM29.6941 59.179C29.2102 59.179 28.771 59.0878 28.3766 58.9055C27.9822 58.7199 27.669 58.4531 27.437 58.1051C27.205 57.7538 27.089 57.3295 27.089 56.8324C27.089 56.3949 27.1752 56.0402 27.3475 55.7685C27.5199 55.4934 27.7502 55.2779 28.0386 55.1222C28.3269 54.9664 28.6451 54.8504 28.9931 54.7741C29.3444 54.6946 29.6974 54.6316 30.052 54.5852C30.5161 54.5256 30.8922 54.4808 31.1806 54.451C31.4723 54.4179 31.6844 54.3632 31.817 54.2869C31.9529 54.2107 32.0208 54.0781 32.0208 53.8892V53.8494C32.0208 53.3589 31.8866 52.9777 31.6181 52.706C31.3529 52.4342 30.9502 52.2983 30.41 52.2983C29.8499 52.2983 29.4107 52.4209 29.0925 52.6662C28.7744 52.9115 28.5506 53.1733 28.4214 53.4517L27.3077 53.054C27.5066 52.59 27.7717 52.2287 28.1032 51.9702C28.4379 51.7083 28.8025 51.526 29.1969 51.4233C29.5947 51.3172 29.9858 51.2642 30.3702 51.2642C30.6155 51.2642 30.8972 51.294 31.2154 51.3537C31.5369 51.41 31.8468 51.5277 32.1451 51.7067C32.4467 51.8857 32.6969 52.1558 32.8958 52.517C33.0947 52.8783 33.1941 53.3622 33.1941 53.9688V59H32.0208V57.9659H31.9611C31.8816 58.1316 31.749 58.3089 31.5634 58.4979C31.3778 58.6868 31.1309 58.8475 30.8226 58.9801C30.5144 59.1127 30.1382 59.179 29.6941 59.179ZM29.8731 58.125C30.3371 58.125 30.7282 58.0339 31.0464 57.8516C31.3679 57.6693 31.6098 57.4339 31.7722 57.1456C31.9379 56.8572 32.0208 56.554 32.0208 56.2358V55.1619C31.9711 55.2216 31.8617 55.2763 31.6927 55.326C31.527 55.3724 31.3347 55.4138 31.116 55.4503C30.9005 55.4834 30.6901 55.5133 30.4846 55.5398C30.2824 55.563 30.1183 55.5829 29.9924 55.5994C29.6875 55.6392 29.4024 55.7038 29.1373 55.7933C28.8754 55.8795 28.6633 56.0104 28.5009 56.1861C28.3418 56.3584 28.2623 56.5937 28.2623 56.892C28.2623 57.2997 28.4131 57.608 28.7147 57.8168C29.0196 58.0223 29.4057 58.125 29.8731 58.125ZM36.4294 56.2159L36.4095 54.7642H36.6481L39.989 51.3636H41.4407L37.8811 54.9631H37.7816L36.4294 56.2159ZM35.3356 59V48.8182H36.5089V59H35.3356ZM40.1879 59L37.2049 55.2216L38.0402 54.4062L41.6794 59H40.1879ZM45.8381 59.1591C45.1023 59.1591 44.4676 58.9967 43.934 58.6719C43.4037 58.3438 42.9943 57.8864 42.706 57.2997C42.421 56.7098 42.2784 56.0237 42.2784 55.2415C42.2784 54.4593 42.421 53.7699 42.706 53.1733C42.9943 52.5734 43.3954 52.1061 43.9091 51.7713C44.4262 51.4332 45.0294 51.2642 45.7188 51.2642C46.1165 51.2642 46.5093 51.3305 46.897 51.4631C47.2848 51.5956 47.6378 51.8111 47.956 52.1094C48.2742 52.4044 48.5277 52.7955 48.7166 53.2827C48.9056 53.7699 49 54.3698 49 55.0824V55.5795H43.1137V54.5653H47.8068C47.8068 54.1345 47.7207 53.75 47.5483 53.4119C47.3793 53.0739 47.1373 52.8071 46.8225 52.6115C46.5109 52.416 46.143 52.3182 45.7188 52.3182C45.2514 52.3182 44.8471 52.4342 44.5057 52.6662C44.1676 52.8949 43.9075 53.1932 43.7252 53.5611C43.5429 53.929 43.4517 54.3234 43.4517 54.7443V55.4205C43.4517 55.9972 43.5512 56.486 43.75 56.8871C43.9522 57.2848 44.2323 57.5881 44.5902 57.7969C44.9482 58.0024 45.3641 58.1051 45.8381 58.1051C46.1463 58.1051 46.4247 58.062 46.6733 57.9759C46.9252 57.8864 47.1423 57.7538 47.3246 57.5781C47.5069 57.3991 47.6478 57.1771 47.7472 56.9119L48.8807 57.2301C48.7614 57.6146 48.5609 57.9527 48.2791 58.2443C47.9974 58.5327 47.6494 58.758 47.2351 58.9205C46.8208 59.0795 46.3551 59.1591 45.8381 59.1591ZM50.7848 59V51.3636H51.9183V52.517H51.9979C52.1371 52.1392 52.389 51.8326 52.7536 51.5973C53.1182 51.362 53.5291 51.2443 53.9865 51.2443C54.0727 51.2443 54.1804 51.246 54.3097 51.2493C54.4389 51.2526 54.5367 51.2576 54.603 51.2642V52.4574C54.5632 52.4474 54.4721 52.4325 54.3296 52.4126C54.1904 52.3894 54.0429 52.3778 53.8871 52.3778C53.5159 52.3778 53.1844 52.4557 52.8928 52.6115C52.6044 52.764 52.3757 52.9761 52.2067 53.2479C52.041 53.5163 51.9581 53.8229 51.9581 54.1676V59H50.7848ZM61.4029 53.0739L60.3489 53.3722C60.2826 53.1965 60.1849 53.0258 60.0556 52.8601C59.9297 52.6911 59.7573 52.5518 59.5386 52.4425C59.3198 52.3331 59.0397 52.2784 58.6984 52.2784C58.231 52.2784 57.8416 52.3861 57.53 52.6016C57.2218 52.8137 57.0677 53.0838 57.0677 53.4119C57.0677 53.7036 57.1737 53.9339 57.3859 54.103C57.598 54.272 57.9294 54.4129 58.3802 54.5256L59.5137 54.804C60.1965 54.9697 60.7052 55.2232 61.04 55.5646C61.3747 55.9027 61.5421 56.3385 61.5421 56.8722C61.5421 57.3097 61.4162 57.7008 61.1643 58.0455C60.9157 58.3902 60.5677 58.6619 60.1202 58.8608C59.6728 59.0597 59.1524 59.1591 58.5591 59.1591C57.7803 59.1591 57.1356 58.9901 56.6252 58.652C56.1148 58.3139 55.7916 57.8201 55.6557 57.1705L56.7694 56.892C56.8754 57.303 57.076 57.6113 57.3709 57.8168C57.6692 58.0223 58.0587 58.125 58.5393 58.125C59.0861 58.125 59.5203 58.009 59.8418 57.777C60.1666 57.5417 60.329 57.2599 60.329 56.9318C60.329 56.6667 60.2362 56.4446 60.0506 56.2656C59.865 56.0833 59.58 55.9474 59.1955 55.858L57.9228 55.5597C57.2234 55.3939 56.7097 55.1371 56.3816 54.7891C56.0568 54.4377 55.8944 53.9986 55.8944 53.4716C55.8944 53.0407 56.0154 52.6596 56.2573 52.3281C56.5026 51.9967 56.8357 51.7365 57.2566 51.5476C57.6808 51.3587 58.1614 51.2642 58.6984 51.2642C59.454 51.2642 60.0473 51.4299 60.4782 51.7614C60.9124 52.0928 61.2206 52.5303 61.4029 53.0739Z" fill="#64748B"/>
</svg>
